<?xml version="1.0" encoding="UTF-8"?>
<svg xmlns="http://www.w3.org/2000/svg" xmlns:xlink="http://www.w3.org/1999/xlink" width="25pt" height="25pt" viewBox="0 0 25 25" version="1.1">
<defs>
<radialGradient id="radial0" gradientUnits="userSpaceOnUse" cx="-14480.522" cy="-8329.079" fx="-14509.281265" fy="-8329.079" r="450.875" gradientTransform="matrix(0.0186035,0.000830078,-0.0012207,0.0273438,282.248364,245.82771)">
<stop offset="0.045" style="stop-color:rgb(100%,91.764706%,0%);stop-opacity:1;"/>
<stop offset="0.12" style="stop-color:rgb(100%,87.058824%,0%);stop-opacity:1;"/>
<stop offset="0.254" style="stop-color:rgb(100%,74.901961%,0%);stop-opacity:1;"/>
<stop offset="0.429" style="stop-color:rgb(100%,55.686275%,0%);stop-opacity:1;"/>
<stop offset="0.769" style="stop-color:rgb(100%,15.294118%,17.647059%);stop-opacity:1;"/>
<stop offset="0.872" style="stop-color:rgb(87.843137%,14.509804%,35.294118%);stop-opacity:1;"/>
<stop offset="0.953" style="stop-color:rgb(80%,14.117647%,46.666667%);stop-opacity:1;"/>
<stop offset="1" style="stop-color:rgb(76.862745%,14.117647%,50.980392%);stop-opacity:1;"/>
</radialGradient>
<radialGradient id="radial1" gradientUnits="userSpaceOnUse" cx="-7529.669" cy="-7921.608" fx="-7529.669" fy="-7921.608" r="791.229" gradientTransform="matrix(0.0299072,0,0,0.0299072,242.235425,241.677319)">
<stop offset="0" style="stop-color:rgb(0%,80%,85.490196%);stop-opacity:1;"/>
<stop offset="0.22" style="stop-color:rgb(0%,51.372549%,100%);stop-opacity:1;"/>
<stop offset="0.261" style="stop-color:rgb(0%,47.843137%,97.647059%);stop-opacity:1;"/>
<stop offset="0.33" style="stop-color:rgb(0%,37.647059%,90.980392%);stop-opacity:1;"/>
<stop offset="0.333" style="stop-color:rgb(0%,37.254902%,90.588235%);stop-opacity:1;"/>
<stop offset="0.438" style="stop-color:rgb(14.901961%,22.352941%,67.843137%);stop-opacity:1;"/>
<stop offset="0.522" style="stop-color:rgb(25.098039%,11.764706%,51.764706%);stop-opacity:1;"/>
<stop offset="0.566" style="stop-color:rgb(29.019608%,7.843137%,45.882353%);stop-opacity:1;"/>
</radialGradient>
<linearGradient id="linear0" gradientUnits="userSpaceOnUse" x1="575.669" y1="731.188" x2="384.231" y2="104.96" gradientTransform="matrix(0.0244141,0,0,0.0244141,0,0)">
<stop offset="0" style="stop-color:rgb(0%,5.882353%,26.27451%);stop-opacity:0.4;"/>
<stop offset="0.485" style="stop-color:rgb(0%,9.803922%,38.431373%);stop-opacity:0.172549;"/>
<stop offset="1" style="stop-color:rgb(0%,12.54902%,47.45098%);stop-opacity:0;"/>
</linearGradient>
<radialGradient id="radial2" gradientUnits="userSpaceOnUse" cx="-8260.94" cy="-6516.556" fx="-8260.94" fy="-6516.556" r="266.886" gradientTransform="matrix(0.0297607,0.00300293,-0.00300293,0.0297607,251.373657,234.307373)">
<stop offset="0.003" style="stop-color:rgb(100%,91.764706%,0%);stop-opacity:1;"/>
<stop offset="0.497" style="stop-color:rgb(100%,15.294118%,17.647059%);stop-opacity:1;"/>
<stop offset="1" style="stop-color:rgb(76.862745%,14.117647%,50.980392%);stop-opacity:1;"/>
</radialGradient>
<radialGradient id="radial3" gradientUnits="userSpaceOnUse" cx="-8285.087" cy="-6772.468" fx="-8285.087" fy="-6772.468" r="445.678" gradientTransform="matrix(0.0297607,0.00300293,-0.00300293,0.0297607,251.373657,234.307373)">
<stop offset="0.003" style="stop-color:rgb(100%,91.372549%,0%);stop-opacity:1;"/>
<stop offset="0.157" style="stop-color:rgb(100%,68.627451%,5.490196%);stop-opacity:1;"/>
<stop offset="0.316" style="stop-color:rgb(100%,47.843137%,10.588235%);stop-opacity:1;"/>
<stop offset="0.472" style="stop-color:rgb(100%,30.588235%,14.901961%);stop-opacity:1;"/>
<stop offset="0.621" style="stop-color:rgb(100%,17.254902%,18.039216%);stop-opacity:1;"/>
<stop offset="0.762" style="stop-color:rgb(100%,7.843137%,20.392157%);stop-opacity:1;"/>
<stop offset="0.892" style="stop-color:rgb(100%,1.960784%,21.960784%);stop-opacity:1;"/>
<stop offset="1" style="stop-color:rgb(100%,0%,22.352941%);stop-opacity:1;"/>
</radialGradient>
<radialGradient id="radial4" gradientUnits="userSpaceOnUse" cx="-8222.051" cy="-6359.332" fx="-8222.051" fy="-6359.332" r="408.958" gradientTransform="matrix(0.0297607,0.00300293,-0.00300293,0.0297607,251.373657,234.307373)">
<stop offset="0.003" style="stop-color:rgb(100%,15.294118%,17.647059%);stop-opacity:1;"/>
<stop offset="0.497" style="stop-color:rgb(76.862745%,14.117647%,50.980392%);stop-opacity:1;"/>
<stop offset="0.986" style="stop-color:rgb(38.431373%,2.745098%,0%);stop-opacity:1;"/>
</radialGradient>
<radialGradient id="radial5" gradientUnits="userSpaceOnUse" cx="750.189" cy="396.041" fx="778.166528" fy="382.212405" r="782.18" gradientTransform="matrix(0.0244141,0,0,0.0244141,0,0)">
<stop offset="0.156" style="stop-color:rgb(100%,91.764706%,0%);stop-opacity:1;"/>
<stop offset="0.231" style="stop-color:rgb(100%,87.058824%,0%);stop-opacity:1;"/>
<stop offset="0.365" style="stop-color:rgb(100%,74.901961%,0%);stop-opacity:1;"/>
<stop offset="0.541" style="stop-color:rgb(100%,55.686275%,0%);stop-opacity:1;"/>
<stop offset="0.763" style="stop-color:rgb(100%,15.294118%,17.647059%);stop-opacity:1;"/>
<stop offset="0.796" style="stop-color:rgb(97.647059%,14.117647%,20%);stop-opacity:1;"/>
<stop offset="0.841" style="stop-color:rgb(91.372549%,10.980392%,27.058824%);stop-opacity:1;"/>
<stop offset="0.893" style="stop-color:rgb(81.176471%,5.490196%,38.431373%);stop-opacity:1;"/>
<stop offset="0.935" style="stop-color:rgb(70.980392%,0%,49.803922%);stop-opacity:1;"/>
</radialGradient>
<radialGradient id="radial6" gradientUnits="userSpaceOnUse" cx="691.339" cy="3.289" fx="691.339" fy="3.289" r="923.615" gradientTransform="matrix(0.0244141,0,0,0.0244141,0,0)">
<stop offset="0.279" style="stop-color:rgb(100%,91.764706%,0%);stop-opacity:1;"/>
<stop offset="0.402" style="stop-color:rgb(100%,86.666667%,0%);stop-opacity:1;"/>
<stop offset="0.63" style="stop-color:rgb(100%,72.941176%,0%);stop-opacity:1;"/>
<stop offset="0.856" style="stop-color:rgb(100%,56.862745%,0%);stop-opacity:1;"/>
<stop offset="0.933" style="stop-color:rgb(100%,40.392157%,6.666667%);stop-opacity:1;"/>
<stop offset="0.994" style="stop-color:rgb(100%,29.019608%,11.372549%);stop-opacity:1;"/>
</radialGradient>
<linearGradient id="linear1" gradientUnits="userSpaceOnUse" x1="-8944.65" y1="-6677.742" x2="-8660.289" y2="-6750.226" gradientTransform="matrix(0.0297607,0.00300293,-0.00300293,0.0297607,251.373657,234.307373)">
<stop offset="0" style="stop-color:rgb(76.862745%,14.117647%,50.980392%);stop-opacity:0.501961;"/>
<stop offset="0.474" style="stop-color:rgb(100%,15.294118%,17.647059%);stop-opacity:0.501961;"/>
<stop offset="0.486" style="stop-color:rgb(100%,17.254902%,17.254902%);stop-opacity:0.513725;"/>
<stop offset="0.675" style="stop-color:rgb(100%,47.843137%,10.196078%);stop-opacity:0.721569;"/>
<stop offset="0.829" style="stop-color:rgb(100%,69.803922%,5.098039%);stop-opacity:0.870588;"/>
<stop offset="0.942" style="stop-color:rgb(100%,83.921569%,1.960784%);stop-opacity:0.964706;"/>
<stop offset="1" style="stop-color:rgb(100%,89.019608%,0.784314%);stop-opacity:1;"/>
</linearGradient>
<linearGradient id="linear2" gradientUnits="userSpaceOnUse" x1="245.347" y1="-1082.012" x2="190.775" y2="-1221.859" gradientTransform="matrix(0.024292,0.00244141,-0.00244141,0.024292,-4.240625,32.078638)">
<stop offset="0" style="stop-color:rgb(53.72549%,8.235294%,31.764706%);stop-opacity:0.6;"/>
<stop offset="1" style="stop-color:rgb(76.862745%,14.117647%,50.980392%);stop-opacity:0;"/>
</linearGradient>
<linearGradient id="linear3" gradientUnits="userSpaceOnUse" x1="22.04" y1="718.827" x2="116.148" y2="825.714" gradientTransform="matrix(0.024292,0.00244141,-0.00244141,0.024292,7.457007,-6.017358)">
<stop offset="0.005" style="stop-color:rgb(53.72549%,8.235294%,31.764706%);stop-opacity:0.501961;"/>
<stop offset="0.484" style="stop-color:rgb(100%,15.294118%,17.647059%);stop-opacity:0.501961;"/>
<stop offset="1" style="stop-color:rgb(100%,15.294118%,17.647059%);stop-opacity:0;"/>
</linearGradient>
<linearGradient id="linear4" gradientUnits="userSpaceOnUse" x1="200.104" y1="904.616" x2="200.171" y2="829.835" gradientTransform="matrix(0.024292,0.00244141,-0.00244141,0.024292,7.457007,-6.017358)">
<stop offset="0" style="stop-color:rgb(76.862745%,14.117647%,50.980392%);stop-opacity:1;"/>
<stop offset="0.083" style="stop-color:rgb(76.862745%,14.117647%,50.980392%);stop-opacity:0.811765;"/>
<stop offset="0.206" style="stop-color:rgb(76.862745%,14.117647%,50.980392%);stop-opacity:0.564706;"/>
<stop offset="0.328" style="stop-color:rgb(76.862745%,14.117647%,50.980392%);stop-opacity:0.360784;"/>
<stop offset="0.447" style="stop-color:rgb(76.862745%,14.117647%,50.980392%);stop-opacity:0.203922;"/>
<stop offset="0.562" style="stop-color:rgb(76.862745%,14.117647%,50.980392%);stop-opacity:0.0901961;"/>
<stop offset="0.673" style="stop-color:rgb(76.862745%,14.117647%,50.980392%);stop-opacity:0.0235294;"/>
<stop offset="0.773" style="stop-color:rgb(76.862745%,14.117647%,50.980392%);stop-opacity:0;"/>
</linearGradient>
<linearGradient id="linear5" gradientUnits="userSpaceOnUse" x1="655.531" y1="38.12" x2="961.187" y2="721.615" gradientTransform="matrix(0.0244141,0,0,0.0244141,0,0)">
<stop offset="0" style="stop-color:rgb(100%,94.509804%,30.980392%);stop-opacity:1;"/>
<stop offset="0.268" style="stop-color:rgb(100%,93.333333%,29.803922%);stop-opacity:1;"/>
<stop offset="0.452" style="stop-color:rgb(100%,90.196078%,26.27451%);stop-opacity:1;"/>
<stop offset="0.612" style="stop-color:rgb(100%,84.705882%,20.392157%);stop-opacity:1;"/>
<stop offset="0.757" style="stop-color:rgb(100%,76.862745%,11.764706%);stop-opacity:1;"/>
<stop offset="0.892" style="stop-color:rgb(100%,67.058824%,0.784314%);stop-opacity:1;"/>
<stop offset="0.902" style="stop-color:rgb(100%,66.27451%,0%);stop-opacity:1;"/>
<stop offset="0.949" style="stop-color:rgb(100%,62.745098%,0%);stop-opacity:1;"/>
<stop offset="1" style="stop-color:rgb(100%,56.862745%,0%);stop-opacity:1;"/>
</linearGradient>
<linearGradient id="linear6" gradientUnits="userSpaceOnUse" x1="715.885" y1="431.21" x2="571.098" y2="819.96" gradientTransform="matrix(0.0244141,0,0,0.0244141,0,0)">
<stop offset="0" style="stop-color:rgb(100%,55.686275%,0%);stop-opacity:1;"/>
<stop offset="0.04" style="stop-color:rgb(100%,55.686275%,0%);stop-opacity:0.858824;"/>
<stop offset="0.084" style="stop-color:rgb(100%,55.686275%,0%);stop-opacity:0.729412;"/>
<stop offset="0.13" style="stop-color:rgb(100%,55.686275%,0%);stop-opacity:0.627451;"/>
<stop offset="0.178" style="stop-color:rgb(100%,55.686275%,0%);stop-opacity:0.556863;"/>
<stop offset="0.227" style="stop-color:rgb(100%,55.686275%,0%);stop-opacity:0.513725;"/>
<stop offset="0.282" style="stop-color:rgb(100%,55.686275%,0%);stop-opacity:0.501961;"/>
<stop offset="0.389" style="stop-color:rgb(100%,55.686275%,0%);stop-opacity:0.478431;"/>
<stop offset="0.524" style="stop-color:rgb(100%,55.686275%,0%);stop-opacity:0.415686;"/>
<stop offset="0.676" style="stop-color:rgb(100%,55.686275%,0%);stop-opacity:0.313725;"/>
<stop offset="0.838" style="stop-color:rgb(100%,55.686275%,0%);stop-opacity:0.172549;"/>
<stop offset="1" style="stop-color:rgb(100%,55.686275%,0%);stop-opacity:0;"/>
</linearGradient>
</defs>
<g id="surface1">
<path style=" stroke:none;fill-rule:nonzero;fill:url(#radial0);" d="M 19.660156 2.285156 C 19.074219 2.964844 18.804688 4.496094 19.394531 6.050781 C 19.988281 7.601562 20.898438 7.265625 21.464844 8.851562 C 22.210938 10.941406 21.863281 13.746094 21.863281 13.746094 C 21.863281 13.746094 22.761719 16.351562 23.390625 13.585938 C 24.773438 8.390625 19.660156 3.5625 19.660156 2.285156 Z M 19.660156 2.285156 "/>
<path style=" stroke:none;fill-rule:nonzero;fill:url(#radial1);" d="M 12.527344 23.84375 C 18.511719 23.84375 23.363281 18.96875 23.363281 12.953125 C 23.363281 6.941406 18.511719 2.066406 12.53125 2.066406 C 6.550781 2.066406 1.699219 6.941406 1.699219 12.953125 C 1.6875 18.972656 6.542969 23.84375 12.527344 23.84375 Z M 12.527344 23.84375 "/>
<path style=" stroke:none;fill-rule:nonzero;fill:url(#linear0);" d="M 20.644531 19.667969 C 20.410156 19.835938 20.167969 19.984375 19.910156 20.113281 C 20.25 19.617188 20.5625 19.105469 20.847656 18.574219 C 21.078125 18.320312 21.289062 18.070312 21.460938 17.804688 C 21.542969 17.671875 21.640625 17.507812 21.738281 17.320312 C 22.347656 16.222656 23.019531 14.449219 23.039062 12.625 L 23.039062 12.621094 C 23.039062 12.578125 23.039062 12.53125 23.039062 12.488281 C 23.042969 12.03125 22.996094 11.574219 22.898438 11.125 C 22.902344 11.160156 22.90625 11.195312 22.914062 11.230469 C 22.90625 11.203125 22.902344 11.175781 22.898438 11.148438 C 22.90625 11.199219 22.914062 11.25 22.921875 11.296875 C 23.042969 12.351562 22.957031 13.378906 22.511719 14.140625 C 22.507812 14.152344 22.5 14.160156 22.492188 14.171875 C 22.722656 13.019531 22.796875 11.746094 22.542969 10.46875 C 22.542969 10.46875 22.441406 9.851562 21.679688 7.96875 C 21.242188 6.886719 20.460938 6 19.773438 5.351562 C 19.171875 4.605469 18.625 4.105469 18.324219 3.789062 C 17.691406 3.125 17.429688 2.625 17.320312 2.300781 C 17.226562 2.253906 16.023438 1.085938 15.925781 1.042969 C 15.402344 1.855469 13.75 4.402344 14.535156 6.78125 C 14.890625 7.859375 15.792969 8.980469 16.734375 9.609375 C 16.777344 9.65625 17.296875 10.21875 17.542969 11.492188 C 17.796875 12.804688 17.664062 13.832031 17.140625 15.347656 C 16.519531 16.679688 14.941406 17.996094 13.457031 18.128906 C 10.292969 18.417969 9.132812 16.539062 9.132812 16.539062 C 10.265625 16.992188 11.515625 16.898438 12.277344 16.429688 C 13.042969 15.953125 13.507812 15.601562 13.882812 15.742188 C 14.253906 15.878906 14.550781 15.480469 14.285156 15.0625 C 13.867188 14.417969 13.101562 14.085938 12.347656 14.21875 C 11.578125 14.34375 10.875 14.953125 9.871094 14.363281 C 9.804688 14.324219 9.742188 14.285156 9.683594 14.238281 C 9.617188 14.195312 9.898438 14.304688 9.832031 14.257812 C 9.636719 14.152344 9.289062 13.917969 9.199219 13.835938 C 9.183594 13.824219 9.351562 13.890625 9.335938 13.875 C 8.394531 13.101562 8.515625 12.578125 8.542969 12.25 C 8.566406 11.988281 8.738281 11.652344 9.027344 11.515625 C 9.164062 11.589844 9.25 11.648438 9.25 11.648438 C 9.25 11.648438 9.191406 11.527344 9.160156 11.464844 C 9.171875 11.460938 9.183594 11.460938 9.191406 11.457031 C 9.308594 11.511719 9.558594 11.652344 9.691406 11.742188 C 9.863281 11.863281 9.917969 11.972656 9.917969 11.972656 C 9.917969 11.972656 9.964844 11.945312 9.929688 11.839844 C 9.917969 11.796875 9.867188 11.65625 9.695312 11.519531 L 9.707031 11.519531 C 9.808594 11.578125 9.90625 11.644531 9.996094 11.722656 C 10.042969 11.546875 10.128906 11.363281 10.109375 11.035156 C 10.097656 10.804688 10.105469 10.746094 10.0625 10.65625 C 10.027344 10.578125 10.085938 10.550781 10.148438 10.628906 C 10.136719 10.566406 10.117188 10.507812 10.09375 10.449219 L 10.09375 10.441406 C 10.171875 10.167969 11.761719 9.453125 11.875 9.371094 C 12.066406 9.238281 12.226562 9.0625 12.34375 8.863281 C 12.429688 8.722656 12.496094 8.527344 12.515625 8.226562 C 12.523438 8.011719 12.421875 7.867188 10.816406 7.699219 C 10.378906 7.65625 10.121094 7.335938 9.972656 7.042969 C 9.949219 6.980469 9.921875 6.921875 9.894531 6.867188 C 9.867188 6.796875 9.847656 6.730469 9.832031 6.660156 C 10.09375 5.90625 10.535156 5.269531 11.183594 4.789062 C 11.21875 4.753906 11.042969 4.796875 11.078125 4.761719 C 11.117188 4.726562 11.386719 4.617188 11.4375 4.59375 C 11.5 4.5625 11.171875 4.425781 10.882812 4.457031 C 10.589844 4.492188 10.527344 4.527344 10.367188 4.59375 C 10.433594 4.527344 10.640625 4.445312 10.59375 4.445312 C 10.273438 4.492188 9.878906 4.675781 9.542969 4.886719 C 9.542969 4.851562 9.546875 4.8125 9.5625 4.78125 C 9.40625 4.847656 9.019531 5.117188 8.90625 5.34375 C 8.910156 5.300781 8.914062 5.257812 8.914062 5.214844 C 8.792969 5.3125 8.6875 5.425781 8.589844 5.550781 L 8.585938 5.554688 C 7.671875 5.1875 6.871094 5.164062 6.191406 5.328125 C 6.042969 5.179688 5.96875 5.289062 5.632812 4.546875 C 5.609375 4.503906 5.648438 4.589844 5.632812 4.546875 C 5.578125 4.402344 5.667969 4.738281 5.632812 4.546875 C 5.0625 4.996094 4.316406 5.503906 3.957031 5.863281 C 3.953125 5.875 4.375 5.742188 3.957031 5.863281 C 3.808594 5.90625 3.820312 5.992188 3.796875 6.777344 C 3.792969 6.835938 3.796875 6.90625 3.792969 6.957031 C 3.503906 7.324219 3.308594 7.632812 3.238281 7.792969 C 2.867188 8.433594 2.457031 9.429688 2.0625 11.003906 C 2.234375 10.578125 2.445312 10.167969 2.691406 9.773438 C 2.359375 10.609375 2.042969 11.925781 1.980469 13.949219 C 2.058594 13.53125 2.160156 13.117188 2.285156 12.710938 C 2.207031 14.390625 2.496094 16.066406 3.132812 17.621094 C 3.359375 18.175781 3.738281 19.023438 4.378906 19.949219 C 6.394531 22.070312 9.234375 23.390625 12.382812 23.390625 C 15.667969 23.390625 18.617188 21.953125 20.644531 19.667969 Z M 20.644531 19.667969 "/>
<path style=" stroke:none;fill-rule:nonzero;fill:url(#radial2);" d="M 18.214844 21.207031 C 22.191406 20.75 23.953125 16.652344 21.691406 16.570312 C 19.648438 16.503906 16.332031 21.425781 18.214844 21.207031 Z M 18.214844 21.207031 "/>
<path style=" stroke:none;fill-rule:nonzero;fill:url(#radial3);" d="M 21.976562 15.734375 C 24.714844 14.140625 24 10.703125 24 10.703125 C 24 10.703125 22.945312 11.929688 22.226562 13.882812 C 21.519531 15.820312 20.332031 16.695312 21.976562 15.734375 Z M 21.976562 15.734375 "/>
<path style=" stroke:none;fill-rule:nonzero;fill:url(#radial4);" d="M 13.292969 23.242188 C 17.105469 24.460938 20.386719 21.457031 18.363281 20.453125 C 16.527344 19.546875 11.484375 22.667969 13.292969 23.242188 Z M 13.292969 23.242188 "/>
<path style=" stroke:none;fill-rule:nonzero;fill:url(#radial5);" d="M 22.261719 17.191406 C 22.355469 17.0625 22.480469 16.644531 22.589844 16.457031 C 23.265625 15.367188 23.269531 14.5 23.269531 14.480469 C 23.675781 12.449219 23.640625 11.621094 23.390625 10.085938 C 23.1875 8.851562 22.308594 7.082031 21.542969 6.230469 C 20.757812 5.351562 21.3125 5.636719 20.550781 4.996094 C 19.882812 4.257812 19.238281 3.523438 18.882812 3.230469 C 16.339844 1.101562 16.394531 0.648438 16.445312 0.570312 C 16.4375 0.582031 16.425781 0.59375 16.410156 0.613281 C 16.378906 0.492188 16.359375 0.390625 16.359375 0.390625 C 16.359375 0.390625 14.964844 1.78125 14.671875 4.101562 C 14.480469 5.617188 15.046875 7.195312 15.867188 8.203125 C 16.296875 8.726562 16.78125 9.199219 17.308594 9.617188 C 17.929688 10.507812 18.269531 11.609375 18.269531 12.789062 C 18.269531 15.75 15.871094 18.148438 12.910156 18.148438 C 12.503906 18.148438 12.101562 18.105469 11.707031 18.015625 C 10.3125 17.75 9.503906 17.042969 9.101562 16.566406 C 8.871094 16.289062 8.773438 16.089844 8.773438 16.089844 C 10.027344 16.539062 11.410156 16.445312 12.25 15.980469 C 13.101562 15.511719 13.613281 15.160156 14.03125 15.300781 C 14.441406 15.4375 14.765625 15.039062 14.472656 14.628906 C 14.1875 14.214844 13.4375 13.625 12.328125 13.789062 C 11.480469 13.914062 10.703125 14.515625 9.589844 13.933594 C 9.515625 13.894531 9.445312 13.855469 9.378906 13.808594 C 9.304688 13.765625 9.617188 13.875 9.546875 13.828125 C 9.328125 13.722656 8.945312 13.492188 8.847656 13.410156 C 8.828125 13.394531 9.015625 13.460938 8.996094 13.449219 C 7.957031 12.679688 8.085938 12.164062 8.121094 11.835938 C 8.144531 11.578125 8.335938 11.242188 8.652344 11.109375 C 8.808594 11.183594 8.902344 11.242188 8.902344 11.242188 C 8.902344 11.242188 8.835938 11.121094 8.800781 11.058594 C 8.8125 11.050781 8.824219 11.054688 8.839844 11.050781 C 8.964844 11.105469 9.242188 11.246094 9.390625 11.332031 C 9.582031 11.453125 9.640625 11.558594 9.640625 11.558594 C 9.640625 11.558594 9.691406 11.535156 9.65625 11.429688 C 9.640625 11.386719 9.582031 11.25 9.394531 11.109375 L 9.40625 11.113281 C 9.519531 11.167969 9.625 11.234375 9.726562 11.3125 C 9.78125 11.136719 9.875 10.957031 9.855469 10.632812 C 9.84375 10.402344 9.847656 10.34375 9.804688 10.257812 C 9.761719 10.179688 9.824219 10.152344 9.894531 10.230469 C 9.882812 10.167969 9.863281 10.105469 9.835938 10.050781 L 9.835938 10.042969 C 9.921875 9.773438 11.679688 9.066406 11.808594 8.980469 C 12.015625 8.851562 12.191406 8.679688 12.324219 8.476562 C 12.421875 8.339844 12.496094 8.144531 12.515625 7.847656 C 12.519531 7.710938 12.480469 7.605469 12.015625 7.503906 C 11.734375 7.445312 11.300781 7.386719 10.636719 7.324219 C 10.148438 7.28125 9.863281 6.964844 9.703125 6.671875 C 9.671875 6.609375 9.644531 6.554688 9.613281 6.496094 C 9.585938 6.429688 9.5625 6.363281 9.542969 6.292969 C 9.835938 5.53125 10.359375 4.882812 11.039062 4.4375 C 11.078125 4.402344 10.882812 4.445312 10.921875 4.410156 C 10.96875 4.375 11.265625 4.265625 11.324219 4.242188 C 11.390625 4.214844 11.027344 4.074219 10.707031 4.109375 C 10.382812 4.140625 10.3125 4.175781 10.140625 4.242188 C 10.210938 4.179688 10.441406 4.09375 10.386719 4.09375 C 10.035156 4.144531 9.597656 4.328125 9.226562 4.535156 C 9.222656 4.496094 9.230469 4.460938 9.246094 4.429688 C 9.074219 4.496094 8.644531 4.761719 8.523438 4.988281 C 8.527344 4.945312 8.53125 4.902344 8.527344 4.859375 C 8.398438 4.957031 8.277344 5.066406 8.171875 5.191406 L 8.164062 5.199219 C 7.15625 4.832031 6.269531 4.808594 5.515625 4.972656 C 5.351562 4.824219 5.085938 4.601562 4.714844 3.863281 C 4.6875 3.820312 4.675781 3.957031 4.65625 3.914062 C 4.507812 3.574219 4.421875 3.023438 4.4375 2.640625 C 4.4375 2.640625 4.136719 2.78125 3.886719 3.351562 C 3.839844 3.453125 3.808594 3.511719 3.78125 3.566406 C 3.765625 3.585938 3.8125 3.378906 3.804688 3.390625 C 3.761719 3.464844 3.648438 3.566406 3.601562 3.699219 C 3.566406 3.796875 3.519531 3.851562 3.488281 3.976562 L 3.480469 3.984375 C 3.480469 3.949219 3.492188 3.835938 3.484375 3.859375 C 3.367188 4.097656 3.265625 4.339844 3.183594 4.589844 C 3.046875 5.03125 2.890625 5.628906 2.867188 6.410156 C 2.859375 6.46875 2.867188 6.535156 2.859375 6.589844 C 2.542969 6.949219 2.328125 7.257812 2.246094 7.417969 C 1.835938 8.050781 1.382812 9.039062 0.945312 10.601562 C 1.140625 10.175781 1.375 9.765625 1.640625 9.382812 C 1.277344 10.210938 0.925781 11.515625 0.855469 13.519531 C 0.941406 13.105469 1.054688 12.695312 1.191406 12.292969 C 1.128906 13.632812 1.285156 15.289062 2.132812 17.160156 C 2.632812 18.261719 3.789062 20.5 6.613281 22.242188 C 6.613281 22.242188 7.574219 22.957031 9.226562 23.492188 C 9.347656 23.539062 9.472656 23.582031 9.597656 23.625 C 9.558594 23.609375 9.519531 23.589844 9.484375 23.574219 C 10.582031 23.902344 11.726562 24.070312 12.871094 24.070312 C 17.148438 24.074219 18.410156 22.359375 18.410156 22.359375 C 18.410156 22.359375 18.40625 22.363281 18.398438 22.367188 C 18.457031 22.3125 18.515625 22.25 18.574219 22.191406 C 17.898438 22.828125 16.359375 22.871094 15.78125 22.824219 C 16.765625 22.535156 17.410156 22.292969 18.667969 21.808594 C 18.816406 21.753906 18.964844 21.695312 19.117188 21.625 C 19.136719 21.617188 19.152344 21.609375 19.167969 21.601562 C 19.199219 21.585938 19.230469 21.574219 19.261719 21.558594 C 19.871094 21.269531 20.449219 20.910156 20.976562 20.484375 C 22.238281 19.476562 22.511719 18.492188 22.65625 17.84375 C 22.636719 17.90625 22.574219 18.050781 22.53125 18.144531 C 22.203125 18.839844 21.484375 19.269531 20.699219 19.632812 C 21.074219 19.144531 21.417969 18.636719 21.734375 18.109375 C 21.992188 17.855469 22.070312 17.460938 22.261719 17.191406 Z M 22.261719 17.191406 "/>
<path style=" stroke:none;fill-rule:nonzero;fill:url(#radial6);" d="M 20.726562 19.605469 C 21.242188 19.035156 21.703125 18.386719 22.050781 17.652344 C 22.953125 15.757812 24.347656 12.609375 23.25 9.320312 C 22.382812 6.71875 21.191406 5.296875 19.679688 3.910156 C 17.226562 1.652344 16.539062 0.648438 16.539062 0.046875 C 16.539062 0.046875 13.707031 3.207031 14.933594 6.503906 C 16.164062 9.796875 18.679688 9.679688 20.347656 13.117188 C 22.308594 17.164062 18.761719 21.578125 15.828125 22.816406 C 16.007812 22.773438 22.347656 21.339844 22.679688 17.714844 C 22.671875 17.78125 22.53125 18.785156 20.726562 19.605469 Z M 20.726562 19.605469 "/>
<path style=" stroke:none;fill-rule:nonzero;fill:url(#linear1);" d="M 12.515625 7.847656 C 12.523438 7.632812 12.414062 7.488281 10.640625 7.320312 C 9.914062 7.253906 9.636719 6.582031 9.550781 6.296875 C 9.289062 6.972656 9.183594 7.675781 9.242188 8.53125 C 9.28125 9.089844 9.65625 9.691406 9.835938 10.042969 C 9.835938 10.042969 9.875 9.992188 9.894531 9.972656 C 10.234375 9.621094 11.652344 9.085938 11.785156 9.007812 C 11.929688 8.914062 12.488281 8.507812 12.515625 7.847656 Z M 12.515625 7.847656 "/>
<path style=" stroke:none;fill-rule:nonzero;fill:url(#linear2);" d="M 4.71875 3.867188 C 4.695312 3.824219 4.679688 3.960938 4.660156 3.917969 C 4.515625 3.578125 4.425781 3.03125 4.449219 2.648438 C 4.449219 2.648438 4.148438 2.785156 3.898438 3.355469 C 3.851562 3.460938 3.824219 3.515625 3.792969 3.574219 C 3.78125 3.589844 3.824219 3.382812 3.816406 3.394531 C 3.773438 3.46875 3.660156 3.570312 3.613281 3.699219 C 3.574219 3.800781 3.53125 3.855469 3.5 3.984375 C 3.492188 4.019531 3.511719 3.832031 3.5 3.855469 C 2.921875 4.972656 2.8125 6.664062 2.875 6.59375 C 4.105469 5.277344 5.519531 4.964844 5.519531 4.964844 C 5.367188 4.855469 5.042969 4.535156 4.71875 3.867188 Z M 4.71875 3.867188 "/>
<path style=" stroke:none;fill-rule:nonzero;fill:url(#linear3);" d="M 9.394531 17.628906 C 7.695312 16.902344 5.757812 15.878906 5.832031 13.550781 C 5.929688 10.480469 8.691406 11.089844 8.691406 11.089844 C 8.585938 11.113281 8.308594 11.3125 8.210938 11.523438 C 8.105469 11.789062 7.914062 12.382812 8.492188 13.011719 C 9.398438 13.992188 6.632812 15.339844 10.902344 17.882812 C 11.007812 17.941406 9.898438 17.847656 9.394531 17.628906 Z M 9.394531 17.628906 "/>
<path style=" stroke:none;fill-rule:nonzero;fill:url(#linear4);" d="M 8.789062 16.101562 C 9.996094 16.519531 11.402344 16.449219 12.246094 15.984375 C 12.808594 15.667969 13.53125 15.167969 13.976562 15.289062 C 13.59375 15.136719 13.300781 15.066406 12.949219 15.050781 C 12.890625 15.050781 12.816406 15.046875 12.753906 15.042969 C 12.625 15.042969 12.496094 15.046875 12.367188 15.0625 C 12.152344 15.082031 11.910156 15.21875 11.691406 15.199219 C 11.679688 15.195312 11.902344 15.105469 11.886719 15.109375 C 11.769531 15.132812 11.644531 15.140625 11.511719 15.15625 C 11.425781 15.164062 11.351562 15.175781 11.269531 15.179688 C 8.753906 15.390625 6.628906 13.816406 6.628906 13.816406 C 6.449219 14.425781 7.4375 15.628906 8.789062 16.101562 Z M 8.789062 16.101562 "/>
<path style=" stroke:none;fill-rule:nonzero;fill:url(#linear5);" d="M 20.722656 19.621094 C 23.265625 17.125 24.550781 14.089844 24.007812 10.683594 C 24.007812 10.683594 24.222656 12.429688 23.398438 14.214844 C 23.796875 12.472656 23.84375 10.304688 22.789062 8.0625 C 21.386719 5.070312 19.078125 3.492188 18.195312 2.835938 C 16.863281 1.839844 16.308594 0.828125 16.296875 0.617188 C 15.898438 1.433594 14.691406 4.234375 16.167969 6.648438 C 17.550781 8.90625 19.730469 9.578125 21.253906 11.652344 C 24.0625 15.46875 20.722656 19.621094 20.722656 19.621094 Z M 20.722656 19.621094 "/>
<path style=" stroke:none;fill-rule:nonzero;fill:url(#linear6);" d="M 20.355469 13.125 C 19.46875 11.289062 18.359375 10.488281 17.308594 9.617188 C 17.429688 9.789062 17.460938 9.851562 17.53125 9.960938 C 18.453125 10.945312 19.816406 13.347656 18.824219 16.359375 C 16.964844 22.035156 9.519531 19.363281 8.742188 18.609375 C 9.054688 21.894531 14.550781 23.464844 18.128906 21.335938 C 20.164062 19.410156 21.8125 16.132812 20.355469 13.125 Z M 20.355469 13.125 "/>
</g>
</svg>
